<svg version="1.1" viewBox="0.0 0.0 512.0 562.0" fill="none" stroke="none" stroke-linecap="square" stroke-miterlimit="10" xmlns:xlink="http://www.w3.org/1999/xlink" xmlns="http://www.w3.org/2000/svg"><clipPath id="p.0"><path d="m0 0l512.0 0l0 562.0l-512.0 0l0 -562.0z" clip-rule="nonzero"/></clipPath><g clip-path="url(#p.0)"><path fill="#000000" fill-opacity="0.0" d="m0 0l512.0 0l0 562.0l-512.0 0z" fill-rule="evenodd"/><path fill="#000000" fill-opacity="0.0" d="m259.87665 75.59055c0 56.283455 -37.56694 84.42519 -75.133865 112.56693c-37.566925 28.141724 -75.13386 56.283463 -75.13386 112.56691" fill-rule="evenodd"/><path stroke="#6fa8dc" stroke-width="24.0" stroke-linejoin="round" stroke-linecap="butt" d="m259.87665 75.59055c0 56.283455 -37.56694 84.42519 -75.133865 112.56693c-37.566925 28.141724 -75.13386 56.283463 -75.13386 112.56691" fill-rule="evenodd"/><path fill="#000000" fill-opacity="0.0" d="m259.87665 75.59055c0 49.818893 36.08661 74.72834 72.17322 99.637794c36.08661 24.909454 72.17322 49.818893 72.17322 99.6378" fill-rule="evenodd"/><path stroke="#6fa8dc" stroke-width="24.0" stroke-linejoin="round" stroke-linecap="butt" d="m259.87665 75.59055c0 49.818893 36.08661 74.72834 72.17322 99.637794c36.08661 24.909454 72.17322 49.818893 72.17322 99.6378" fill-rule="evenodd"/><path fill="#6fa8dc" d="m218.20473 371.90576l0 0c0 -6.958069 5.6406097 -12.598663 12.598679 -12.598663l50.39319 0l0 0c3.3413696 0 6.5458984 1.3273315 8.9086 3.6900635c2.362732 2.3627014 3.690094 5.56723 3.690094 8.9086l0 50.39319c0 6.958069 -5.640625 12.598694 -12.598694 12.598694l-50.39319 0c-6.958069 0 -12.598679 -5.640625 -12.598679 -12.598694z" fill-rule="evenodd"/><path stroke="#6fa8dc" stroke-width="8.0" stroke-linejoin="round" stroke-linecap="butt" d="m218.20473 371.90576l0 0c0 -6.958069 5.6406097 -12.598663 12.598679 -12.598663l50.39319 0l0 0c3.3413696 0 6.5458984 1.3273315 8.9086 3.6900635c2.362732 2.3627014 3.690094 5.56723 3.690094 8.9086l0 50.39319c0 6.958069 -5.640625 12.598694 -12.598694 12.598694l-50.39319 0c-6.958069 0 -12.598679 -5.640625 -12.598679 -12.598694z" fill-rule="evenodd"/><path fill="#6fa8dc" d="m75.58996 334.7411l0 0c0 -18.786377 15.22937 -34.015747 34.015755 -34.015747l0 0c9.021538 0 17.673576 3.5838013 24.052765 9.962982c6.379181 6.379181 9.962982 15.0312195 9.962982 24.052765l0 0c0 18.786377 -15.22937 34.015747 -34.015747 34.015747l0 0c-18.786385 0 -34.015755 -15.22937 -34.015755 -34.015747z" fill-rule="evenodd"/><path stroke="#6fa8dc" stroke-width="4.0" stroke-linejoin="round" stroke-linecap="butt" d="m75.58996 334.7411l0 0c0 -18.786377 15.22937 -34.015747 34.015755 -34.015747l0 0c9.021538 0 17.673576 3.5838013 24.052765 9.962982c6.379181 6.379181 9.962982 15.0312195 9.962982 24.052765l0 0c0 18.786377 -15.22937 34.015747 -34.015747 34.015747l0 0c-18.786385 0 -34.015755 -15.22937 -34.015755 -34.015747z" fill-rule="evenodd"/><path fill="#000000" fill-opacity="0.0" d="m318.77167 168.18898c0 47.779526 -15.692932 71.66928 -31.385834 95.55904c-15.692932 23.88977 -31.385834 47.77954 -31.385834 95.55908" fill-rule="evenodd"/><path stroke="#6fa8dc" stroke-width="24.0" stroke-linejoin="round" stroke-linecap="butt" d="m318.77167 168.18898c0 47.779526 -15.692932 71.66928 -31.385834 95.55904c-15.692932 23.88977 -31.385834 47.77954 -31.385834 95.55908" fill-rule="evenodd"/><path fill="#000000" fill-opacity="0.0" d="m379.64404 325.51364l0 0c0 -8.472382 6.8681946 -15.340576 15.340576 -15.340576l18.452698 0l0 0c4.068573 0 7.97052 1.6162415 10.847443 4.4931335c2.876892 2.8769226 4.4931335 6.7788696 4.4931335 10.847443l0 18.452698c0 8.472382 -6.8681946 15.340576 -15.340576 15.340576l-18.452698 0c-8.472382 0 -15.340576 -6.8681946 -15.340576 -15.340576z" fill-rule="evenodd"/><path stroke="#6fa8dc" stroke-width="12.0" stroke-linejoin="round" stroke-linecap="butt" d="m379.64404 325.51364l0 0c0 -8.472382 6.8681946 -15.340576 15.340576 -15.340576l18.452698 0l0 0c4.068573 0 7.97052 1.6162415 10.847443 4.4931335c2.876892 2.8769226 4.4931335 6.7788696 4.4931335 10.847443l0 18.452698c0 8.472382 -6.8681946 15.340576 -15.340576 15.340576l-18.452698 0c-8.472382 0 -15.340576 -6.8681946 -15.340576 -15.340576z" fill-rule="evenodd"/><path fill="#6fa8dc" d="m400.13123 275.9957l0 0c0 -0.62384033 0.5057373 -1.1295471 1.1295776 -1.1295471l5.898346 0c0.29959106 0 0.58688354 0.11898804 0.7987366 0.33084106c0.21182251 0.21182251 0.33084106 0.4991455 0.33084106 0.79870605l0 10.433777c0 0.62387085 -0.5057373 1.1295776 -1.1295776 1.1295776l-5.898346 0c-0.62384033 0 -1.1295776 -0.5057068 -1.1295776 -1.1295776z" fill-rule="evenodd"/><path stroke="#6fa8dc" stroke-width="16.0" stroke-linejoin="round" stroke-linecap="butt" d="m400.13123 275.9957l0 0c0 -0.62384033 0.5057373 -1.1295471 1.1295776 -1.1295471l5.898346 0c0.29959106 0 0.58688354 0.11898804 0.7987366 0.33084106c0.21182251 0.21182251 0.33084106 0.4991455 0.33084106 0.79870605l0 10.433777c0 0.62387085 -0.5057373 1.1295776 -1.1295776 1.1295776l-5.898346 0c-0.62384033 0 -1.1295776 -0.5057068 -1.1295776 -1.1295776z" fill-rule="evenodd"/><path fill="#000000" fill-opacity="0.0" d="m222.08136 12.598678l0 0c0 -6.958058 5.640625 -12.598678 12.598679 -12.598678l50.393204 0l0 0c3.3413696 0 6.5458984 1.3273568 8.9086 3.690067c2.362732 2.3627102 3.6900635 5.567233 3.6900635 8.90861l0 50.393196c0 6.9580536 -5.6405945 12.598679 -12.598663 12.598679l-50.393204 0c-6.9580536 0 -12.598679 -5.640625 -12.598679 -12.598679z" fill-rule="evenodd"/><path fill="#000000" fill-opacity="0.0" d="m0 309.54355l0 0c0 -6.9580383 5.6406198 -12.598663 12.598678 -12.598663l50.393196 0l0 0c3.3413773 0 6.5458984 1.3273621 8.9086075 3.6900635c2.362709 2.3627014 3.690071 5.56723 3.690071 8.9086l0 50.39322c0 6.9580383 -5.640625 12.598663 -12.598679 12.598663l-50.393196 0c-6.958058 0 -12.598678 -5.640625 -12.598678 -12.598663z" fill-rule="evenodd"/><path fill="#6fa8dc" d="m255.7979 76.720116l0 0c0 -0.62384033 0.50572205 -1.1295624 1.1295624 -1.1295624l5.898346 0c0.29959106 0 0.58688354 0.119003296 0.7987366 0.33084106c0.21182251 0.21183014 0.33084106 0.4991455 0.33084106 0.7987213l0 10.4337845c0 0.62384033 -0.5057373 1.1295624 -1.1295776 1.1295624l-5.898346 0c-0.62384033 0 -1.1295624 -0.50572205 -1.1295624 -1.1295624z" fill-rule="evenodd"/><path stroke="#6fa8dc" stroke-width="16.0" stroke-linejoin="round" stroke-linecap="butt" d="m255.7979 76.720116l0 0c0 -0.62384033 0.50572205 -1.1295624 1.1295624 -1.1295624l5.898346 0c0.29959106 0 0.58688354 0.119003296 0.7987366 0.33084106c0.21182251 0.21183014 0.33084106 0.4991455 0.33084106 0.7987213l0 10.4337845c0 0.62384033 -0.5057373 1.1295624 -1.1295776 1.1295624l-5.898346 0c-0.62384033 0 -1.1295624 -0.50572205 -1.1295624 -1.1295624z" fill-rule="evenodd"/><path fill="#000000" fill-opacity="0.0" d="m0 424.29922l512.0 0l0 137.70078l-512.0 0z" fill-rule="evenodd"/><path fill="#6fa8dc" d="m46.629105 517.1496l0 -35.53125l12.40625 0l0 35.53125l-12.40625 0zm6.203125 -42.265625q-3.40625 0 -5.28125 -1.5625q-1.859375 -1.5625 -1.859375 -4.4375q0 -2.65625 1.90625 -4.359375q1.90625 -1.703125 5.234375 -1.703125q3.328125 0 5.21875 1.578125q1.90625 1.5625 1.90625 4.484375q0 2.671875 -1.9375 4.34375q-1.921875 1.65625 -5.1875 1.65625zm15.936096 42.265625l0 -35.53125l11.59375 0l0.53125 7.203125l-2.53125 0.796875q0.671875 -2.53125 2.59375 -4.5q1.9375 -1.96875 4.59375 -3.09375q2.671875 -1.140625 5.609375 -1.140625q4.0 0 6.765625 1.640625q2.765625 1.625 4.1875 4.859375q1.4375 3.234375 1.4375 7.90625l0 21.859375l-12.390625 0l0 -20.859375q0 -1.734375 -0.53125 -2.890625q-0.53125 -1.171875 -1.609375 -1.765625q-1.0625 -0.609375 -2.53125 -0.546875q-1.125 0 -2.09375 0.34375q-0.96875 0.328125 -1.703125 1.03125q-0.734375 0.6875 -1.109375 1.5625q-0.359375 0.859375 -0.359375 1.921875l0 21.203125l-6.1875 0q-2.265625 0 -3.84375 0q-1.5625 0 -2.421875 0zm59.38597 0.671875q-5.265625 0 -9.4375 -2.390625q-4.15625 -2.40625 -6.5625 -6.578125q-2.390625 -4.171875 -2.390625 -9.5q0 -5.328125 2.390625 -9.5q2.40625 -4.171875 6.5625 -6.5625q4.171875 -2.40625 9.4375 -2.40625q4.796875 0 8.828125 1.546875q4.03125 1.53125 6.4375 4.390625l-6.734375 8.0q-0.734375 -0.9375 -1.875 -1.703125q-1.125 -0.765625 -2.5 -1.1875q-1.359375 -0.4375 -3.03125 -0.4375q-2.1875 0 -3.859375 1.0q-1.671875 1.0 -2.578125 2.765625q-0.890625 1.765625 -0.890625 4.03125q0 2.265625 0.859375 4.0q0.875 1.734375 2.578125 2.796875q1.703125 1.0625 3.890625 1.0625q1.671875 0 3.03125 -0.390625q1.375 -0.40625 2.46875 -1.140625q1.109375 -0.734375 1.90625 -1.734375l6.734375 8.0625q-2.46875 2.796875 -6.5 4.34375q-4.03125 1.53125 -8.765625 1.53125zm20.80162 -0.671875l0 -35.53125l11.59375 0l0.671875 11.671875l-2.609375 -2.0q0.875 -2.9375 2.703125 -5.296875q1.828125 -2.375 4.421875 -3.734375q2.609375 -1.375 5.46875 -1.375q1.203125 0 2.265625 0.171875q1.078125 0.171875 2.0 0.4375l-3.390625 13.71875q-0.734375 -0.453125 -2.078125 -0.8125q-1.328125 -0.375 -2.859375 -0.375q-1.328125 0 -2.40625 0.4375q-1.0625 0.421875 -1.796875 1.234375q-0.71875 0.796875 -1.125 1.890625q-0.40625 1.09375 -0.40625 2.5625l0 17.0l-12.453125 0zm47.52008 0.671875q-6.0625 0 -10.46875 -2.359375q-4.390625 -2.375 -6.796875 -6.53125q-2.390625 -4.171875 -2.390625 -9.515625q0 -4.0 1.328125 -7.390625q1.328125 -3.40625 3.71875 -5.90625q2.40625 -2.5 5.703125 -3.859375q3.3125 -1.375 7.234375 -1.375q3.875 0 7.03125 1.34375q3.171875 1.328125 5.46875 3.796875q2.296875 2.46875 3.53125 5.796875q1.234375 3.328125 1.109375 7.328125l-0.078125 2.796875l-27.984375 0l-1.53125 -6.1875l19.59375 0l-1.203125 1.328125l0 -1.265625q0 -1.46875 -0.765625 -2.5625q-0.765625 -1.109375 -2.03125 -1.703125q-1.265625 -0.609375 -2.875 -0.609375q-2.265625 0 -3.765625 0.90625q-1.5 0.90625 -2.296875 2.578125q-0.796875 1.65625 -0.796875 3.984375q0 2.671875 1.09375 4.609375q1.109375 1.921875 3.265625 3.0q2.171875 1.0625 5.3125 1.0625q2.0625 0 3.625 -0.53125q1.5625 -0.53125 3.375 -1.875l5.71875 8.0625q-2.328125 1.875 -4.703125 2.984375q-2.359375 1.09375 -4.6875 1.59375q-2.328125 0.5 -4.734375 0.5zm21.935623 -0.671875l0 -35.53125l11.59375 0l0.46875 5.875l-1.53125 -0.265625q0.921875 -1.734375 2.1875 -2.9375q1.265625 -1.203125 2.796875 -1.96875q1.546875 -0.765625 3.140625 -1.09375q1.59375 -0.34375 3.0625 -0.34375q2.46875 0 4.5625 0.703125q2.109375 0.703125 3.734375 2.375q1.640625 1.65625 2.703125 4.65625l-1.921875 -0.125l0.53125 -0.9375q1.0 -1.734375 2.359375 -2.9375q1.375 -1.203125 3.03125 -2.0625q1.671875 -0.875 3.4375 -1.265625q1.765625 -0.40625 3.359375 -0.40625q4.34375 0 7.265625 1.671875q2.9375 1.671875 4.40625 4.90625q1.46875 3.21875 1.46875 7.890625l0 21.796875l-12.40625 0l0 -20.796875q0 -1.734375 -0.53125 -2.890625q-0.53125 -1.171875 -1.53125 -1.765625q-1.0 -0.609375 -2.46875 -0.609375q-1.125 0 -2.09375 0.375q-0.96875 0.359375 -1.640625 1.0625q-0.65625 0.703125 -1.0625 1.53125q-0.40625 0.828125 -0.40625 1.96875l0 21.125l-12.390625 0l0 -20.859375q0 -1.671875 -0.53125 -2.796875q-0.53125 -1.140625 -1.53125 -1.765625q-1.0 -0.640625 -2.46875 -0.640625q-1.140625 0 -2.109375 0.375q-0.953125 0.359375 -1.625 1.03125q-0.671875 0.65625 -1.078125 1.53125q-0.390625 0.859375 -0.390625 1.921875l0 21.203125l-12.390625 0zm77.38989 0.734375q-4.0 0 -6.8125 -1.703125q-2.796875 -1.703125 -4.265625 -4.890625q-1.46875 -3.203125 -1.46875 -7.734375l0 -21.9375l12.40625 0l0 20.671875q0 1.734375 0.59375 2.9375q0.609375 1.1875 1.671875 1.828125q1.0625 0.625 2.59375 0.625q1.203125 0 2.171875 -0.328125q0.96875 -0.328125 1.625 -1.03125q0.671875 -0.703125 1.0625 -1.59375q0.40625 -0.90625 0.40625 -1.96875l0 -21.140625l12.40625 0l0 35.53125l-11.46875 0l-0.671875 -7.203125l2.34375 -0.796875q-0.734375 2.46875 -2.609375 4.46875q-1.859375 2.0 -4.46875 3.140625q-2.59375 1.125 -5.515625 1.125zm31.859863 -0.734375l0 -35.53125l11.59375 0l0.53125 7.203125l-2.53125 0.796875q0.671875 -2.53125 2.59375 -4.5q1.9375 -1.96875 4.59375 -3.09375q2.671875 -1.140625 5.609375 -1.140625q4.0 0 6.765625 1.640625q2.765625 1.625 4.1875 4.859375q1.4375 3.234375 1.4375 7.90625l0 21.859375l-12.390625 0l0 -20.859375q0 -1.734375 -0.53125 -2.890625q-0.53125 -1.171875 -1.609375 -1.765625q-1.0625 -0.609375 -2.53125 -0.546875q-1.125 0 -2.09375 0.34375q-0.96875 0.328125 -1.703125 1.03125q-0.734375 0.6875 -1.109375 1.5625q-0.359375 0.859375 -0.359375 1.921875l0 21.203125l-6.1875 0q-2.265625 0 -3.84375 0q-1.5625 0 -2.421875 0zm43.917236 0l0 -35.53125l12.40625 0l0 35.53125l-12.40625 0zm6.203125 -42.265625q-3.40625 0 -5.28125 -1.5625q-1.859375 -1.5625 -1.859375 -4.4375q0 -2.65625 1.90625 -4.359375q1.90625 -1.703125 5.234375 -1.703125q3.328125 0 5.21875 1.578125q1.90625 1.5625 1.90625 4.484375q0 2.671875 -1.9375 4.34375q-1.921875 1.65625 -5.1875 1.65625zm31.795471 42.9375q-5.265625 0 -9.4375 -2.390625q-4.15625 -2.40625 -6.5625 -6.578125q-2.390625 -4.171875 -2.390625 -9.5q0 -5.328125 2.390625 -9.5q2.40625 -4.171875 6.5625 -6.5625q4.171875 -2.40625 9.4375 -2.40625q4.796875 0 8.828125 1.546875q4.03125 1.53125 6.4375 4.390625l-6.734375 8.0q-0.734375 -0.9375 -1.875 -1.703125q-1.125 -0.765625 -2.5 -1.1875q-1.359375 -0.4375 -3.03125 -0.4375q-2.1875 0 -3.859375 1.0q-1.671875 1.0 -2.578125 2.765625q-0.890625 1.765625 -0.890625 4.03125q0 2.265625 0.859375 4.0q0.875 1.734375 2.578125 2.796875q1.703125 1.0625 3.890625 1.0625q1.671875 0 3.03125 -0.390625q1.375 -0.40625 2.46875 -1.140625q1.109375 -0.734375 1.90625 -1.734375l6.734375 8.0625q-2.46875 2.796875 -6.5 4.34375q-4.03125 1.53125 -8.765625 1.53125zm33.66101 -0.078125q-4.40625 0 -7.90625 -2.359375q-3.5 -2.359375 -5.53125 -6.53125q-2.03125 -4.171875 -2.03125 -9.5q0 -5.46875 2.0 -9.59375q2.0 -4.140625 5.53125 -6.5q3.53125 -2.375 8.140625 -2.375q2.46875 0 4.53125 0.671875q2.0625 0.671875 3.59375 1.9375q1.53125 1.265625 2.65625 2.859375q1.140625 1.59375 1.875 3.46875l-2.53125 -0.140625l0 -8.0625l12.203125 0l0 35.53125l-12.46875 0l0 -8.671875l2.734375 0.140625q-0.59375 1.9375 -1.765625 3.609375q-1.171875 1.65625 -2.84375 2.890625q-1.65625 1.234375 -3.6875 1.9375q-2.03125 0.6875 -4.5 0.6875zm3.53125 -10.1875q2.140625 0 3.671875 -0.96875q1.53125 -0.96875 2.359375 -2.828125q0.828125 -1.875 0.828125 -4.40625q0 -2.59375 -0.828125 -4.453125q-0.828125 -1.875 -2.359375 -2.84375q-1.53125 -0.96875 -3.671875 -0.96875q-2.125 0 -3.625 0.96875q-1.5 0.96875 -2.3125 2.84375q-0.796875 1.859375 -0.796875 4.453125q0 2.53125 0.796875 4.40625q0.8125 1.859375 2.3125 2.828125q1.5 0.96875 3.625 0.96875z" fill-rule="nonzero"/></g></svg>